<svg xmlns="http://www.w3.org/2000/svg" viewBox="0 0 1080.15 674.01"><defs><style>.cls-1{isolation:isolate;}.cls-2{fill:#ead5ca;}.cls-3{fill:#e8c952;}.cls-24,.cls-28,.cls-30,.cls-31,.cls-32,.cls-36,.cls-4,.cls-40,.cls-42,.cls-43,.cls-45,.cls-7{fill:none;}.cls-24,.cls-30,.cls-31,.cls-32,.cls-4{stroke:#261510;}.cls-24,.cls-30,.cls-4,.cls-40,.cls-42,.cls-43,.cls-45{stroke-miterlimit:10;}.cls-4{stroke-width:1.4px;}.cls-5{fill:#68b9bb;}.cls-6{fill:#d2547c;}.cls-28,.cls-36,.cls-7{stroke:#000;}.cls-28,.cls-31,.cls-32,.cls-36,.cls-7{stroke-linecap:round;stroke-linejoin:round;}.cls-7{stroke-width:1.14px;}.cls-8{fill:#c03b6a;}.cls-9{fill:#383737;}.cls-10{fill:#f9f2ef;}.cls-11,.cls-21,.cls-22,.cls-23,.cls-38{fill:#fff;}.cls-12{fill:#8c3737;}.cls-13,.cls-17,.cls-38{opacity:0.2;}.cls-14,.cls-15,.cls-17{fill:#261510;}.cls-15{opacity:0.1;}.cls-16{fill:#c7c7c7;}.cls-18{fill:#e26f98;}.cls-19{fill:#3d405b;}.cls-20{fill:#d0d1d3;}.cls-21{opacity:0.7;}.cls-22,.cls-39{opacity:0.5;}.cls-23{opacity:0.9;}.cls-24{stroke-width:1.35px;}.cls-25{fill:#f69c99;}.cls-26{fill:#9b3934;opacity:0.3;mix-blend-mode:multiply;}.cls-27{fill:#fcfcfc;}.cls-28,.cls-30,.cls-31{stroke-width:1.23px;}.cls-29{fill:#af3561;}.cls-32{stroke-width:0.83px;}.cls-33{opacity:0.8;}.cls-34{fill:#81b29a;}.cls-35{fill:#4b9b9b;}.cls-36{stroke-width:0.77px;}.cls-37{fill:#f2cc8f;}.cls-40,.cls-43{stroke:#c6a028;}.cls-40,.cls-42{stroke-width:2.32px;}.cls-41{fill:#a3295b;}.cls-42,.cls-45{stroke:#e8c952;}.cls-43,.cls-45{stroke-width:1.52px;}.cls-44{fill:#3d8785;}</style></defs><g class="cls-1"><g id="Layer_2" data-name="Layer 2"><g id="OBJECTS"><ellipse class="cls-2" cx="571.34" cy="629.6" rx="508.8" ry="44.41"/><g id="Plant"><path class="cls-3" d="M117.31,424.41c-.2.34,1.62,2-4.37,2.32-14.76.65-40.86-.27-50.7-13.66-14-19.12,18.23-17.45,15.06-28s-37.81-1.83-44.62-16.89S51.09,356,49.9,348.22s-27.62,2.38-36.39-13.6,14.37-7.48,10.61-14.09S-9.06,286.4,2.8,280.22s39.52,22.54,48.62,25.59,11.13-25.2,23.1-15.78,4.26,52.09,18.22,57.34c10.39,3.92,4.68-11.35,17.49-10.8C127.64,337.32,133.54,397.1,117.31,424.41Z"/><path class="cls-4" d="M40.49,311.73s75.5,64.1,88,163.91"/><path class="cls-4" d="M46.14,338.4C60,335.42,75,349.71,75,349.71"/><path class="cls-4" d="M65.62,307.69s17.4,23,17.2,53"/><path class="cls-4" d="M94.3,378.46s-18.77-16.35-35.22-10.4"/><path class="cls-4" d="M108.57,407a88.12,88.12,0,0,0,3.19-40"/><path class="cls-5" d="M136.9,433.6s85.23-30,70.38-138.88C207.28,294.72,122.62,330.52,136.9,433.6Z"/><path class="cls-4" d="M193.39,320.13s-60.55,75.92-64,164.66"/><path class="cls-4" d="M194.87,351.71C181.13,351.44,163.8,367,163.8,367"/><path class="cls-4" d="M172.15,332.72s-13.92,14.91-11.47,41.33"/><path class="cls-4" d="M150.18,396s17.35-14.61,32.33-10.66"/><path class="cls-4" d="M144.28,411.85s-3.21-12.2-1.72-31.31"/><polygon class="cls-6" points="93.93 622.47 163.04 622.47 179.51 467.81 77.45 467.81 93.93 622.47"/><line class="cls-7" x1="163.48" y1="485.65" x2="173.91" y2="485.65"/><line class="cls-7" x1="80.09" y1="485.65" x2="152.11" y2="485.65"/><path class="cls-8" d="M86,547.89l8,74.58H163l2.46-21.23c-8.54,1-15.55,3.18-35.31,1.47C107.31,600.73,92.34,557.53,86,547.89Z"/></g><path class="cls-9" d="M959.75,0H273.69A42.74,42.74,0,0,0,231,42.7v428a42.74,42.74,0,0,0,42.69,42.69H959.74a42.75,42.75,0,0,0,42.71-42.69V42.7A42.74,42.74,0,0,0,959.75,0ZM994.6,225.67h0v245a34.88,34.88,0,0,1-34.85,34.85H273.68a34.88,34.88,0,0,1-34.85-34.85v-183h0V42.7A34.89,34.89,0,0,1,273.69,7.84H959.75A34.89,34.89,0,0,1,994.6,42.7Z"/><path class="cls-2" d="M994.6,42.7V85.77H238.84V42.7A34.89,34.89,0,0,1,273.69,7.84H959.75A34.89,34.89,0,0,1,994.6,42.7Z"/><path class="cls-10" d="M994.6,85.77v139.9h0v245a34.88,34.88,0,0,1-34.85,34.85H273.68a34.88,34.88,0,0,1-34.85-34.85v-183h0v-202Z"/><rect class="cls-11" x="273.18" y="119.22" width="169.7" height="146.45" rx="11.3"/><rect class="cls-11" x="273.18" y="282.55" width="169.7" height="146.45" rx="11.3"/><rect class="cls-11" x="621.81" y="119.22" width="169.7" height="146.45" rx="11.3"/><rect class="cls-11" x="621.81" y="282.55" width="169.7" height="146.45" rx="11.3"/><rect class="cls-12" x="236.09" y="77.92" width="2.75" height="7.85"/><path class="cls-5" d="M745,340.28l4,78h-82.1l2.45-75.71-10.75,75.71-20.34-2.46s0-38.23,8.51-77.08,28.71-45.47,28.71-45.47,28.83,16.05,63.23,0c0,0,22.25,6,27.8,39.92s8.63,83.24,8.63,83.24l-20.35,1.85Z"/><g class="cls-13"><path class="cls-14" d="M653.59,417.68l5,.6,10.14-71.41c-2,2.69-4.35,7.49-6,16C660.1,376,655.53,405.13,653.59,417.68Z"/></g><path class="cls-15" d="M678.44,308.15l-7.3,25S668.07,318.14,678.44,308.15Z"/><path class="cls-15" d="M737.14,308.15l7.3,25S747.5,318.14,737.14,308.15Z"/><path class="cls-16" d="M664.93,127.29s36.31,20.21,79.61,0c0,0,27.43,10.67,36.81,52.52l-28.86,6.66,3.6,70.73-101-.8,2.16-67L632,180.7S637.43,136.68,664.93,127.29Z"/><path class="cls-6" d="M664.93,127.29s36.31,20.21,79.61,0c0,0,27.43,10.67,36.81,52.52l-28.86,6.66,3.6,70.73-101-.8,2.16-67L632,180.7S637.43,136.68,664.93,127.29Z"/><polygon class="cls-17" points="653.34 188.03 656.91 189.25 658.99 164.44 653.34 188.03"/><polygon class="cls-17" points="749.01 157.91 752.49 186.47 758.1 185.18 749.01 157.91"/><ellipse class="cls-18" cx="704.81" cy="167.67" rx="31.62" ry="12.91"/><path class="cls-19" d="M419.81,240.69s-2.87-45.95-8-77.54c-2-12.14-6.27-20.44-10.79-26.06A30.09,30.09,0,0,0,377.49,126H367.27l-5.95,6.21h-10L346,126h-5.9A35.58,35.58,0,0,0,309,144.07a88.11,88.11,0,0,0-8.79,24.25c-7.92,36.18-7.92,71.79-7.92,71.79l18.95,2.3,10-70.52-1.15,84.29,74.75.59-3.12-87,9.1,72.66Z"/><polygon class="cls-20" points="345.87 124.37 356.41 131.22 366.03 124.37 372.05 125.53 365.1 139.19 356.41 134.1 346.8 139.19 341.47 125.53 345.87 124.37"/><polygon class="cls-11" points="345.87 124.37 356.41 131.22 366.03 124.37 372.05 125.53 365.1 139.19 356.41 134.1 346.8 139.19 341.47 125.53 345.87 124.37"/><polygon class="cls-20" points="291.07 237.53 312.47 240.25 311.75 244.85 291.07 242.26 291.07 237.53"/><polygon class="cls-11" points="291.07 237.53 312.47 240.25 311.75 244.85 291.07 242.26 291.07 237.53"/><polygon class="cls-20" points="420.71 237.91 399.23 239.87 399.78 244.49 421.03 242.6 420.71 237.91"/><polygon class="cls-11" points="420.71 237.91 399.23 239.87 399.78 244.49 421.03 242.6 420.71 237.91"/><path class="cls-21" d="M357.8,159.49a1.74,1.74,0,1,1-1.74-1.74A1.73,1.73,0,0,1,357.8,159.49Z"/><path class="cls-21" d="M358.5,186.22a1.74,1.74,0,1,1-1.74-1.74A1.74,1.74,0,0,1,358.5,186.22Z"/><path class="cls-21" d="M359.53,213.9a1.74,1.74,0,1,1-1.73-1.73A1.73,1.73,0,0,1,359.53,213.9Z"/><path class="cls-21" d="M359.53,242.21a1.74,1.74,0,1,1-1.73-1.74A1.72,1.72,0,0,1,359.53,242.21Z"/><path class="cls-16" d="M310.65,298.35,322,288.74s15.77,13.6,35.65,11.46a98.77,98.77,0,0,0,35.65-11.46l9.51,7.05s-13.64,21.29,2.3,47.28l-2.39,79.74H314l-3.53-81.51S329,318.6,310.65,298.35Z"/><path class="cls-3" d="M310.65,298.35,322,288.74s15.77,13.6,35.65,11.46a98.77,98.77,0,0,0,35.65-11.46l9.51,7.05s-13.64,21.29,2.3,47.28l-2.39,79.74H314l-3.53-81.51S329,318.6,310.65,298.35Z"/><polygon class="cls-22" points="404.73 356.81 404.55 356.62 388.93 372.24 373.31 356.62 357.68 372.24 342.06 356.62 326.44 372.24 311.13 356.93 311.76 371.41 326.44 386.1 342.06 370.48 357.68 386.1 373.31 370.48 388.93 386.1 404.31 370.71 404.73 356.81"/><polygon class="cls-21" points="404.31 370.71 388.93 386.1 373.31 370.48 357.68 386.1 342.06 370.48 326.44 386.1 311.76 371.41 312.38 385.9 326.44 399.95 342.06 384.33 357.68 399.95 373.31 384.33 388.93 399.95 403.89 384.99 404.31 370.71"/><polygon class="cls-23" points="403.89 384.99 388.93 399.95 373.31 384.33 357.68 399.95 342.06 384.33 326.44 399.95 312.38 385.9 313.01 400.38 326.44 413.81 342.06 398.19 357.68 413.81 373.31 398.19 388.93 413.81 403.46 399.28 403.89 384.99"/><circle class="cls-6" cx="819.28" cy="41.48" r="9.74" transform="translate(580.02 826.14) rotate(-75.94)"/><circle class="cls-5" cx="868.3" cy="41.48" r="9.74" transform="translate(615.98 873.35) rotate(-75.86)"/><circle class="cls-3" cx="917.32" cy="41.48" r="9.74" transform="translate(651.8 920.51) rotate(-75.78)"/><rect class="cls-11" x="462.34" y="124.37" width="115.45" height="11.19"/><rect class="cls-11" x="462.34" y="143.57" width="115.45" height="11.19"/><rect class="cls-11" x="462.34" y="162.77" width="115.45" height="11.19"/><rect class="cls-11" x="462.34" y="181.97" width="61.35" height="11.19"/><rect class="cls-11" x="810.58" y="124.37" width="115.45" height="11.19"/><rect class="cls-11" x="810.58" y="143.57" width="115.45" height="11.19"/><rect class="cls-11" x="810.58" y="162.77" width="115.45" height="11.19"/><rect class="cls-11" x="810.58" y="181.97" width="61.35" height="11.19"/><rect class="cls-11" x="462.34" y="298.74" width="115.45" height="11.19"/><rect class="cls-11" x="462.34" y="317.94" width="115.45" height="11.19"/><rect class="cls-11" x="462.34" y="337.14" width="115.45" height="11.19"/><rect class="cls-11" x="462.34" y="356.34" width="61.35" height="11.19"/><rect class="cls-11" x="810.58" y="298.74" width="115.45" height="11.19"/><rect class="cls-11" x="810.58" y="317.94" width="115.45" height="11.19"/><rect class="cls-11" x="810.58" y="337.14" width="115.45" height="11.19"/><rect class="cls-11" x="810.58" y="356.34" width="61.35" height="11.19"/><polygon class="cls-3" points="472.26 208.84 474.88 214.14 480.73 215 476.5 219.13 477.5 224.96 472.26 222.21 467.02 224.96 468.02 219.13 463.78 215 469.64 214.14 472.26 208.84"/><polygon class="cls-3" points="496.52 208.84 499.14 214.14 505 215 500.76 219.13 501.76 224.96 496.52 222.21 491.28 224.96 492.28 219.13 488.04 215 493.9 214.14 496.52 208.84"/><polygon class="cls-3" points="520.78 208.84 523.4 214.14 529.26 215 525.02 219.13 526.02 224.96 520.78 222.21 515.54 224.96 516.54 219.13 512.31 215 518.16 214.14 520.78 208.84"/><polygon class="cls-3" points="545.04 208.84 547.66 214.14 553.52 215 549.28 219.13 550.28 224.96 545.04 222.21 539.81 224.96 540.81 219.13 536.57 215 542.43 214.14 545.04 208.84"/><polygon class="cls-3" points="569.31 208.84 571.93 214.14 577.78 215 573.55 219.13 574.55 224.96 569.31 222.21 564.07 224.96 565.07 219.13 560.83 215 566.69 214.14 569.31 208.84"/><polygon class="cls-3" points="818.01 208.84 820.63 214.14 826.49 215 822.25 219.13 823.25 224.96 818.01 222.21 812.78 224.96 813.78 219.13 809.54 215 815.4 214.14 818.01 208.84"/><polygon class="cls-3" points="842.28 208.84 844.9 214.14 850.75 215 846.52 219.13 847.52 224.96 842.28 222.21 837.04 224.96 838.04 219.13 833.8 215 839.66 214.14 842.28 208.84"/><polygon class="cls-3" points="866.54 208.84 869.16 214.14 875.02 215 870.78 219.13 871.78 224.96 866.54 222.21 861.3 224.96 862.3 219.13 858.06 215 863.92 214.14 866.54 208.84"/><polygon class="cls-3" points="890.8 208.84 893.42 214.14 899.28 215 895.04 219.13 896.04 224.96 890.8 222.21 885.56 224.96 886.57 219.13 882.33 215 888.18 214.14 890.8 208.84"/><polygon class="cls-3" points="915.07 208.84 917.68 214.14 923.54 215 919.3 219.13 920.3 224.96 915.07 222.21 909.83 224.96 910.83 219.13 906.59 215 912.45 214.14 915.07 208.84"/><polygon class="cls-3" points="472.26 378.04 474.88 383.34 480.73 384.19 476.5 388.33 477.5 394.16 472.26 391.4 467.02 394.16 468.02 388.33 463.78 384.19 469.64 383.34 472.26 378.04"/><polygon class="cls-3" points="496.52 378.04 499.14 383.34 505 384.19 500.76 388.33 501.76 394.16 496.52 391.4 491.28 394.16 492.28 388.33 488.04 384.19 493.9 383.34 496.52 378.04"/><polygon class="cls-3" points="520.78 378.04 523.4 383.34 529.26 384.19 525.02 388.33 526.02 394.16 520.78 391.4 515.54 394.16 516.54 388.33 512.31 384.19 518.16 383.34 520.78 378.04"/><polygon class="cls-3" points="545.04 378.04 547.66 383.34 553.52 384.19 549.28 388.33 550.28 394.16 545.04 391.4 539.81 394.16 540.81 388.33 536.57 384.19 542.43 383.34 545.04 378.04"/><polygon class="cls-3" points="569.31 378.04 571.93 383.34 577.78 384.19 573.55 388.33 574.55 394.16 569.31 391.4 564.07 394.16 565.07 388.33 560.83 384.19 566.69 383.34 569.31 378.04"/><polygon class="cls-3" points="818.01 378.04 820.63 383.34 826.49 384.19 822.25 388.33 823.25 394.16 818.01 391.4 812.78 394.16 813.78 388.33 809.54 384.19 815.4 383.34 818.01 378.04"/><polygon class="cls-3" points="842.28 378.04 844.9 383.34 850.75 384.19 846.52 388.33 847.52 394.16 842.28 391.4 837.04 394.16 838.04 388.33 833.8 384.19 839.66 383.34 842.28 378.04"/><polygon class="cls-3" points="866.54 378.04 869.16 383.34 875.02 384.19 870.78 388.33 871.78 394.16 866.54 391.4 861.3 394.16 862.3 388.33 858.06 384.19 863.92 383.34 866.54 378.04"/><polygon class="cls-3" points="890.8 378.04 893.42 383.34 899.28 384.19 895.04 388.33 896.04 394.16 890.8 391.4 885.56 394.16 886.57 388.33 882.33 384.19 888.18 383.34 890.8 378.04"/><polygon class="cls-3" points="915.07 378.04 917.68 383.34 923.54 384.19 919.3 388.33 920.3 394.16 915.07 391.4 909.83 394.16 910.83 388.33 906.59 384.19 912.45 383.34 915.07 378.04"/><path class="cls-5" d="M824.31,614.72c0,.38-2.41.77,2.25,4.23,11.47,8.52,32.89,21.93,48,16.53,21.62-7.71-5.15-23.87,3.11-30.61s31.3,19,44.92,10.65-8.15-19.75-3-25.32,20.85,16.87,36.53,8.82-7.46-13.78-.86-17,45.09-9.36,38.93-20.75-43.89-3.36-52.84-5.84,4.75-26.23-10-25.17-31.64,39.44-45.67,36.09c-10.45-2.5,2.4-11.64-8.17-18.15C863.23,539.32,826.11,584,824.31,614.72Z"/><path class="cls-24" d="M947,566.05S851.7,576.5,787.58,649.73"/><path class="cls-24" d="M928,584.36c-9.48-9.88-29.25-6.56-29.25-6.56"/><path class="cls-24" d="M929,549.19s-26.42,9-42.51,33.16"/><path class="cls-24" d="M867.66,590.37s23.9-2.93,33.86,10.75"/><path class="cls-24" d="M840.73,605.53a85.37,85.37,0,0,1,19.12-33.79"/><path class="cls-3" d="M814.26,530.78s85.7-17.17,86.21-123.53C900.47,407.25,814.52,430.09,814.26,530.78Z"/><path class="cls-24" d="M883.72,429.72s-68.27,64.53-83.61,149.08"/><path class="cls-24" d="M880.87,460.17C867.75,458.05,849,470.65,849,470.65"/><path class="cls-24" d="M861.67,438.9s-15.35,12.41-16.57,38"/><path class="cls-24" d="M832.06,496.57s18.6-11.65,32.42-5.83"/><path class="cls-24" d="M824.27,510.94s-1.43-12.12,2.59-30.23"/><g id="Character_2" data-name="Character 2"><g id="Character_2-2" data-name="Character 2"><path class="cls-6" d="M287,113.91H237.54l-43.18,7.42c-5.65.56-10,4.7-9.33,8.89L194.12,263l64.24,53.05,51-36.75Z"/><path class="cls-19" d="M312.34,293.38l50.3,305L298.3,599,249.77,312.83S252.83,279,312.34,293.38Z"/><path class="cls-19" d="M178.34,437.76l13.79-164.54s58.45-22.69,78.79,9.4L238.53,450.91Z"/><path class="cls-19" d="M180.87,393.82,162.81,592.21l54.73,5.39S231.23,493.05,242,431c4.65-26.81-21-48.87-46.81-40.26Z"/><path class="cls-9" d="M173.15,592.21l-1.22,18.34a12.34,12.34,0,0,0,10.56,13l53.79,7.69-.18-1.62a29.19,29.19,0,0,0-9.87-18.82L209.5,596.33Z"/><path class="cls-9" d="M309.8,597.6l0,20.47a7.74,7.74,0,0,0,7.74,7.73l69.28.1h0a25,25,0,0,0-13.15-17.8L353.4,597.6Z"/><polygon class="cls-19" points="305.97 257.41 194.13 263 189.96 299.17 260.88 326.97 315.42 310.79 305.97 257.41"/><polygon class="cls-6" points="286.99 113.91 346.92 116.48 395.74 39.46 427.24 59.67 369.33 158.65 274.44 166.22 286.99 113.91"/><path class="cls-6" d="M191.05,121.78h0c-7.23,2-19.15,2.51-20.33,36.87l-6.17,69a22.51,22.51,0,0,0,14.3,22l85.78,26.63,10.16-32-68.72-24L212.86,139A17.27,17.27,0,0,0,191.05,121.78Z"/><path class="cls-25" d="M220.48,117.34s13.84,20.85,30.23,18.14,11.42-21.41,11.42-21.41l-22.68-.16Z"/><polygon class="cls-25" points="223.49 93.7 225.93 118.27 255.57 115.32 254.7 106.64 253.13 90.75 223.49 93.7"/><path class="cls-26" d="M223.49,93.7s22.21,14.49,31.21,12.94l-1.58-15.89Z"/><path class="cls-25" d="M267.85,68.76c1.67,16.8-8.88,31.6-23.57,33.07s-28-11-29.63-27.78S223.53,42.44,238.22,41,266.18,52,267.85,68.76Z"/><path class="cls-19" d="M274.44,34.7C269.71,22.27,259,28.48,259,28.48s-.65-14-14.35-13.86S231.65,24,231.65,24s-11.75-7-17.17-.29,0,13.3,0,13.3h0a5.47,5.47,0,0,0-1.31.11c-.16.19-.3.38-.44.56-2.52,1.12-6.94,3.68-8,8.29-1.35,6,3.29,14.26,4.06,15.56a1.18,1.18,0,0,0,.11.19h0c.3.48.25,1.72.57,1.57,5.84-2.64,9.2,8.55,9.53,11.11.39-2.34.21-6.52.6-8.86,2,1,4.6-.14,5.9-2a11.66,11.66,0,0,0,1.71-6.44c0-.47,0-1,0-1.43h0c6.21,3.36,12.79-4,12.79-4,4.33,6.69,18.13,3.43,18.13,3.43,10,3.43,8.93-4.71,8.93-4.71S279.18,47.13,274.44,34.7Z"/><path class="cls-27" d="M248.57,83.34c-2,1.07-10.25,2-13.09-2.67,0,0-3.24,9.71,5.16,9.75C243.13,90.44,244.58,88.44,248.57,83.34Z"/><path class="cls-28" d="M254.77,64.72a9,9,0,0,0,1,10.62,1.37,1.37,0,0,1,.16,1.63,6.27,6.27,0,0,1-4.26,3.08"/><path class="cls-19" d="M249.38,61.72a3.82,3.82,0,0,0-2.31-2.58c-4.51-1.94-9.42-1-13.87,1.47A3.1,3.1,0,0,0,231.76,62a1.23,1.23,0,0,0,.61,1.67,25.6,25.6,0,0,1,17-1.33A1.73,1.73,0,0,0,249.38,61.72Z"/><path class="cls-19" d="M255.38,61.89A8.65,8.65,0,0,1,258.85,60c2.63-.69,4.93-.29,8.15,2a3.44,3.44,0,0,1,1.27,1.37c.28.61.19,1.45-.29,1.61-4.45-2.51-9.16-3.28-13.41-2C254.51,62.68,254.87,62.34,255.38,61.89Z"/><path class="cls-19" d="M242.57,68.9c.23,1.59-.26,3-1.11,3.11s-1.72-1.07-2-2.66.27-3,1.11-3.1S242.34,67.31,242.57,68.9Z"/><path class="cls-19" d="M262.07,69.11c.23,1.59-.26,3-1.11,3.11s-1.72-1.07-1.95-2.66.27-3,1.11-3.1S261.84,67.52,262.07,69.11Z"/><path class="cls-25" d="M217.69,81c-.54-4.89-1.12-10.25-1.77-16.12-2.12-2.69-6.7-4.06-8.82-2.28s-2.7,5.43-2.2,8.88a15.52,15.52,0,0,0,4.67,9.4C211.88,82.87,215.58,82.17,217.69,81Z"/><path class="cls-29" d="M207.91,194.17s21-39.8,3.71-41.85Z"/><polygon class="cls-14" points="256.95 355.19 260.13 309.55 263.75 395.28 256.95 355.19"/><path class="cls-30" d="M338.22,459.12A34.23,34.23,0,0,1,305,498.84h0"/><line class="cls-31" x1="196.47" y1="216.99" x2="274.79" y2="244.28"/><polyline class="cls-31" points="205.73 220.3 205.73 220.3 211.41 152.33"/><path class="cls-25" d="M422.76,56.91a131.42,131.42,0,0,0,9.79-14.32c1.75-3.05-23.6-14.33-25.93-11.37A134.1,134.1,0,0,0,399,42.82Z"/><path class="cls-25" d="M427,51.18c1.23-1.27,11.82-10.46,14.83-17.59,1.59-3.77,3.93-11.91,1.76-13.15-2-1.15-3.59,1.61-3.59,1.61s2.23-7.59-.55-9.15-4.77,1.51-4.77,1.51,1.05-5.09-1.84-6.45-4.56,3.88-4.56,3.88.7-2.89-2.15-3c-3.42-.14-4.6,8.6-7.07,12.4-.56.85-12.61,16.66-12.61,16.66Z"/><path class="cls-25" d="M420,17.25c2.88,2.87-2.26,9.7-5.23,12.72,0,0,6.67,6.61,4,12.31s-17.43-3.23-17.43-3.23,2.16-7.84,3.88-11.07S417.78,15.05,420,17.25"/><path class="cls-32" d="M437.55,28a41.63,41.63,0,0,1-4.22,7.9"/><path class="cls-32" d="M433.47,19a86.63,86.63,0,0,1-5.16,12.72"/><path class="cls-32" d="M427.24,15.9a45.08,45.08,0,0,1-4.72,12.31"/><path class="cls-32" d="M434.36,36.63A73.74,73.74,0,0,0,420.1,27.2"/><path class="cls-32" d="M420,17.25c2.88,2.87-2.26,9.7-5.23,12.72,0,0,6.67,6.61,4,12.31"/><line class="cls-29" x1="292.19" y1="152.33" x2="289.68" y2="133.81"/><polygon class="cls-29" points="317.85 162.76 292.19 153.8 293.69 164.87 317.85 162.76"/><path class="cls-14" d="M419.39,28c2.61.74,5.89-1.57,4.26-4.56a15.66,15.66,0,0,0-1.28-2.1C421.57,23.32,420.53,25.51,419.39,28Z"/><path class="cls-14" d="M364.7,85.44l6-3.59,1.11-.67q8.19-4.91,16.36-9.83l16.11-9.69c1.1-.66,5.11-3,6.26-3.91.47.31,1.43.73,1.8,1,1.75,1.25,3.77,2.26,5.61,3.39l3,1.8,13.34,8,15.55,9.34c2.29,1.39,4.61,2.77,6.91,4.16,1.89,1.13,3.6-1.82,1.72-3l-4.69-2.82Q438.21,70.32,422.67,61l-10.25-6.16V40.2a1.75,1.75,0,0,0-1.71-1.71,10,10,0,0,1-6.3-2.88,8.86,8.86,0,0,1-2.23-3.72A9,9,0,0,1,404.41,23a8.12,8.12,0,0,1,7.72-2.62h.52A33.86,33.86,0,0,1,416,18.12a11.66,11.66,0,0,0-14.16,2.28,11.74,11.74,0,0,0-1.3,15.73,12.76,12.76,0,0,0,1.91,2.12A14,14,0,0,0,409,41.63V54.82L375.39,75h0l-7.58,4.56L363,82.48C361.09,83.62,362.82,86.57,364.7,85.44Z"/><path class="cls-5" d="M354.5,147.5l-3.94,127.4a9.93,9.93,0,0,0,10,10.23l98.61-.78A9.92,9.92,0,0,0,469,274.24l-2.36-123.35,15.93,112.22,30.16-3.65s0-56.67-12.62-114.24-42.55-67.4-42.55-67.4-42.74,23.79-93.72,0c0,0-33,8.91-41.2,59.17s-12.79,123.38-12.79,123.38L340,263.11Z"/><g class="cls-33"><polygon class="cls-11" points="352.46 187.44 467.83 187.44 468.46 206.81 351.47 206.81 352.46 187.44"/></g><path class="cls-17" d="M453.12,99.87l10.83,37S468.49,114.68,453.12,99.87Z"/><path class="cls-17" d="M366.13,99.87l-10.83,37S350.76,114.68,366.13,99.87Z"/><rect class="cls-34" x="354.67" y="281.8" width="109.9" height="18.83" transform="translate(819.25 582.43) rotate(180)"/><rect class="cls-35" x="354.67" y="281.8" width="109.9" height="18.83" transform="translate(819.25 582.43) rotate(180)"/><path class="cls-25" d="M318.59,268.66l-15.93,7.85c-3.28,1.62-9.9,3.41-13.44,2.47l-22.58-8.19,7.44-22.52,18.9-1.12c5.9,1.23,14.67,3.73,14.67,3.73,1.85,9-15.77,5.56-16.3,5.61,4.75,1.68,13.45,4.65,16.18,3.83a19.57,19.57,0,0,1,9.4-.17A4.68,4.68,0,0,1,318.59,268.66Z"/><path class="cls-36" d="M291.76,256.7c4.76,1.68,13.45,4.64,16.18,3.82a19.45,19.45,0,0,1,9.4-.16,4.67,4.67,0,0,1,3.77,4.87"/><path class="cls-36" d="M291.34,266.69l11.76,1.66c5.69.8,11.32-2,16.94-3.13"/><path class="cls-36" d="M291.28,273.58a70.66,70.66,0,0,0,9.7,1.61c4.61.15,9.12-2.16,13.37-3.94"/><line class="cls-31" x1="219.66" y1="262.31" x2="194.32" y2="255.32"/></g></g><g id="Box"><rect class="cls-37" x="400.39" y="487.91" width="137.62" height="161.72"/><rect class="cls-37" x="536.41" y="487.91" width="109.03" height="161.72"/><rect class="cls-15" x="536.41" y="487.91" width="109.03" height="161.72"/><polygon class="cls-37" points="522.26 543.4 384.31 543.4 400.28 487.97 536.63 487.97 522.26 543.4"/><polygon class="cls-38" points="522.26 543.4 384.31 543.4 400.28 487.97 536.63 487.97 522.26 543.4"/><polygon class="cls-37" points="559.77 542.74 666.39 543.4 648.33 487.97 538.69 487.97 559.77 542.74"/><g class="cls-39"><path class="cls-11" d="M502.62,618l-2.35-2L496,625.56s0,.06,0,.09l-.29.67s-2.29,4.33-1.21,8l-5-11.51s-1-2.38,1-7.44l2.27-5.6-1.63-1.37,4.18-.61,4.2-.58,1.54,5.37Z"/><path class="cls-11" d="M503.56,625.79v11.92l-5.37-.12a5.07,5.07,0,0,1-3.71-3.25c-1.08-3.69,1.21-8,1.21-8l.29-.67s0-.06,0-.09Z"/><path class="cls-11" d="M513.45,622.79l-.08,3.78,8.19.24a.09.09,0,0,0,.07,0l.57,0s3.88.55,5.68-2.58l-4.8,11.64s-1,2.33-5.2,2.54l-4.68.11,0,2.62-2.48-4.65-2.46-4.69,2.62-4.53Z"/><path class="cls-11" d="M517.94,617.76l7.53-6,2.61,6.42s1.07,3.48-.2,6c-1.8,3.13-5.68,2.58-5.68,2.58l-.57,0a.09.09,0,0,1-.07,0Z"/><path class="cls-11" d="M510.5,607.52l2.42-1.8L509,595.89s0-.08,0-.09l-.27-.69s-1.6-4.88-4.47-5.44l9.76-.14s2,.06,4.2,4.9l2.41,5.5,1.68-1.26-1.7,5.27-1.74,5.27-4.17-.85Z"/><path class="cls-11" d="M505.07,604.71l-7.53-6,2.76-6.31s1.66-3,3.91-2.77c2.87.56,4.47,5.44,4.47,5.44l.27.69s0,.05,0,.09Z"/><path class="cls-38" d="M503.56,625.79v11.92l-5.37-.12a5.07,5.07,0,0,1-3.71-3.25c-1.08-3.69,1.21-8,1.21-8l.29-.67s0-.06,0-.09Z"/><path class="cls-38" d="M517.94,617.76l7.53-6,2.61,6.42s1.07,3.48-.2,6c-1.8,3.13-5.68,2.58-5.68,2.58l-.57,0a.09.09,0,0,1-.07,0Z"/><path class="cls-38" d="M505.07,604.71l-7.53-6,2.76-6.31s1.66-3,3.91-2.77c2.87.56,4.47,5.44,4.47,5.44l.27.69s0,.05,0,.09Z"/></g></g><path class="cls-40" d="M737.19,476.24s-12.11-49.44,26.23-54.47,29.71,56.63,29.71,56.63"/><polygon class="cls-41" points="687.83 469.31 698.66 466.67 834.1 469.98 835.66 480.66 690.95 476.27 687.83 469.31"/><path class="cls-6" d="M687.83,469.31S779.2,475.18,827,472.8c0,0,12.55,171.3,10.77,176s-165.17.63-168.24,0S687.83,469.31,687.83,469.31Z"/><path class="cls-11" d="M734.36,478.86a3.93,3.93,0,1,1-3.73-4.12A3.92,3.92,0,0,1,734.36,478.86Z"/><path class="cls-11" d="M790.61,481a3.93,3.93,0,1,1-3.74-4.11A3.94,3.94,0,0,1,790.61,481Z"/><path class="cls-8" d="M827,472.8,834.1,470S857,625.9,855,631.82s-17.27,17-17.27,17Z"/><path class="cls-42" d="M730.44,478.67s-12.11-49.44,26.23-54.47,29.71,56.63,29.71,56.63"/><path class="cls-11" d="M716.6,557.94q-4.92-5.12-4.91-14A21.47,21.47,0,0,1,714,533.88a16,16,0,0,1,6.23-6.63,17.84,17.84,0,0,1,9.08-2.3A16.83,16.83,0,0,1,742,530.1q4.9,5.16,4.91,13.89t-4.91,14a18.4,18.4,0,0,1-25.43,0Zm53.31-32.11h14.14l-46.93,68.73H723Zm-36.43,25.53q1.57-2.36,1.58-7.37c0-3.33-.53-5.79-1.58-7.36a4.88,4.88,0,0,0-8.39,0q-1.62,2.4-1.62,7.31c0,3.28.54,5.71,1.62,7.32a4.89,4.89,0,0,0,8.39.05Zm31.57,39q-4.86-5.12-4.86-14t4.91-13.89a18.27,18.27,0,0,1,25.43,0q4.9,5.16,4.91,13.89t-4.91,14a16.94,16.94,0,0,1-12.77,5.1A16.76,16.76,0,0,1,765.05,590.34ZM782,583.76c1-1.57,1.57-4,1.57-7.37S783,570.6,782,569a5,5,0,0,0-8.45,0c-1,1.57-1.57,4-1.57,7.36s.52,5.8,1.57,7.37a5,5,0,0,0,8.45,0Z"/><path class="cls-43" d="M624.83,535.55s-8-32.45,17.22-35.75S661.55,537,661.55,537"/><polygon class="cls-44" points="592.43 531 599.55 529.27 688.44 531.44 689.46 538.45 594.49 535.57 592.43 531"/><path class="cls-5" d="M592.43,531s60,3.85,91.34,2.29c0,0,8.23,112.43,7.07,115.54s-108.41.41-110.43,0S592.43,531,592.43,531Z"/><path class="cls-11" d="M623,537.27a2.58,2.58,0,1,1-2.45-2.7A2.58,2.58,0,0,1,623,537.27Z"/><path class="cls-11" d="M659.9,538.69a2.58,2.58,0,1,1-2.46-2.7A2.59,2.59,0,0,1,659.9,538.69Z"/><path class="cls-35" d="M683.77,533.29l4.67-1.85s15,102.34,13.73,106.22-11.33,11.17-11.33,11.17Z"/><path class="cls-45" d="M620.4,537.14s-7.94-32.45,17.22-35.75,19.5,37.17,19.5,37.17"/></g></g></g></svg>