<!DOCTYPE svg PUBLIC "-//W3C//DTD SVG 1.1//EN" "http://www.w3.org/Graphics/SVG/1.1/DTD/svg11.dtd">
<!-- Uploaded to: SVG Repo, www.svgrepo.com, Transformed by: SVG Repo Mixer Tools -->
<svg fill="#000000" width="64px" height="64px" viewBox="-4.8 -4.8 33.60 33.60" id="car-shipping" data-name="Line Color" xmlns="http://www.w3.org/2000/svg" class="icon line-color">
<g id="SVGRepo_bgCarrier" stroke-width="0">
<rect x="-4.8" y="-4.8" width="33.60" height="33.60" rx="16.8" fill="#b5d0d9" strokewidth="0"/>
</g>
<g id="SVGRepo_tracerCarrier" stroke-linecap="round" stroke-linejoin="round"/>
<g id="SVGRepo_iconCarrier">
<path id="primary" d="M15,6V17H10a2,2,0,0,0-4,0H4a1,1,0,0,1-1-1V6A1,1,0,0,1,4,5H14A1,1,0,0,1,15,6Zm5.83,4.75L19.3,8.45A1,1,0,0,0,18.46,8H15v9h1a2,2,0,0,1,4,0h1V11.3A1,1,0,0,0,20.83,10.75Z" style="fill: none; stroke: #4786eb; stroke-linecap: round; stroke-linejoin: round; stroke-width: 2;"/>
<path id="secondary" d="M10,17a2,2,0,1,1-2-2A2,2,0,0,1,10,17Zm8-2a2,2,0,1,0,2,2A2,2,0,0,0,18,15Z" style="fill: none; stroke: #4786eb; stroke-linecap: round; stroke-linejoin: round; stroke-width: 2;"/>
</g>
</svg>